<?xml version="1.0" encoding="UTF-8"?>
<svg version="1.1" xmlns="http://www.w3.org/2000/svg" width="500" height="500">
<path d="M0 0 C165 0 330 0 500 0 C500 165 500 330 500 500 C335 500 170 500 0 500 C0 335 0 170 0 0 Z " fill="#020202" transform="translate(0,0)"/>
<path d="M0 0 C1.80416231 2.1377787 3.09980439 4.37742595 4.4921875 6.80078125 C6.8287396 10.2087575 9.10670022 10.82466422 13 12 C13.99 12.33 14.98 12.66 16 13 C24.66979926 14.12130487 33.4480969 14.27595056 42.18041992 14.35009766 C43.59660294 14.36663844 45.0127031 14.39390476 46.4284668 14.43212891 C57.30747491 14.72183272 65.86298632 13.06351411 76 9 C76.96462158 8.61634277 77.92924316 8.23268555 78.9230957 7.83740234 C79.60847412 7.56105957 80.29385254 7.2847168 81 7 C81 6.34 81 5.68 81 5 C87.98681103 0.34212598 96.28714138 1.36247328 104.25 2.8125 C108.68566752 3.82636686 112.80001648 5.27015067 117 7 C117.88171875 7.32613281 118.7634375 7.65226563 119.671875 7.98828125 C143.21768266 17.05154848 157.01770678 33.47831027 167.26171875 56.1015625 C167.52976318 56.70871094 167.79780762 57.31585938 168.07397461 57.94140625 C168.76095278 59.46858789 169.47118506 60.98535408 170.19360352 62.49609375 C182.42937034 88.37935763 185.62417809 117.15648488 185.90821838 145.42907715 C185.95607652 149.94016014 186.07547413 154.44281234 186.24777222 158.95083618 C186.35788609 161.98612638 186.43381383 165.02169189 186.50280762 168.0581665 C186.54229068 169.50793774 186.59506023 170.95741399 186.66174316 172.40618896 C187.15916886 183.60674238 187.15916886 183.60674238 184.41870117 186.90063477 C182.32678288 188.2481555 180.33053552 189.1384255 178 190 C176.90042969 190.57621094 175.80085938 191.15242187 174.66796875 191.74609375 C172.94513672 192.58333984 172.94513672 192.58333984 171.1875 193.4375 C162.23788449 197.82775229 153.40828688 202.44647009 144.58081055 207.07592773 C126.61789384 216.44850885 126.61789384 216.44850885 120 217 C119.2884375 217.07476562 118.576875 217.14953125 117.84375 217.2265625 C113.63690923 217.49299575 111.47671452 217.27502761 107.75 215.125 C103.3081256 210.76997789 100.55996332 204.85581292 99.375 198.8125 C101.09490468 191.07292893 107.64050949 186.12713511 114 182 C115.64835512 181.28926261 117.31154859 180.60938827 119 180 C119 179.34 119 178.68 119 178 C111.67593759 179.66655312 104.57573688 181.74097354 97.4375 184.0625 C91.3883097 186.02212193 85.4959779 187.6772205 79.1953125 188.640625 C76.77651398 188.98944999 76.77651398 188.98944999 73.625 190 C63.05482132 192.91591136 52.45949864 193.34662952 41.57226562 193.31567383 C39.2664412 193.31252247 36.96191638 193.33604239 34.65625 193.36132812 C13.42707484 193.45105474 -6.33983257 187.89059548 -26.15283203 180.66308594 C-28.75350026 179.72951273 -31.37430118 178.86021334 -34 178 C-31.31741406 180.7583652 -28.60289954 183.37801565 -25.66796875 185.8671875 C-25.09755859 186.36089844 -24.52714844 186.85460937 -23.93945312 187.36328125 C-22.76406794 188.37749322 -21.57624574 189.37745496 -20.37695312 190.36328125 C-17.1988261 193.16003303 -16.09688955 194.28563178 -15.5078125 198.62890625 C-16.52355038 205.58590458 -20.14277563 211.02134502 -25 216 C-37.18624484 220.06208161 -48.50644254 213.35348067 -59.1875 208.0625 C-64.31226894 205.4734084 -69.28657672 202.73008701 -74.16796875 199.703125 C-78.87093222 196.87486007 -83.68959474 194.25379293 -88.49365234 191.60205078 C-89.60087646 190.99079346 -89.60087646 190.99079346 -90.73046875 190.3671875 C-91.38426514 190.00737793 -92.03806152 189.64756836 -92.71166992 189.27685547 C-95.82149861 187.54161552 -98.90988722 185.77011217 -102 184 C-102.0662234 170.80262176 -101.89733111 157.61573209 -101.62768555 144.42114258 C-101.56224209 141.17470609 -101.50270733 137.92819359 -101.44335938 134.68164062 C-100.88806579 105.93846919 -100.88806579 105.93846919 -98.125 96 C-97.79757813 94.783125 -97.47015625 93.56625 -97.1328125 92.3125 C-96 89 -96 89 -94.5546875 86.625 C-93.14753712 84.2491079 -92.39073971 82.30231925 -91.57421875 79.69140625 C-90.12183339 75.13067116 -88.12705342 71.11419412 -85.8125 66.9375 C-85.00741711 65.45404498 -84.20407166 63.96964589 -83.40234375 62.484375 C-82.99999512 61.73994141 -82.59764648 60.99550781 -82.18310547 60.22851562 C-80.33752752 56.75215667 -78.609205 53.22032942 -76.875 49.6875 C-65.32509619 26.36278668 -65.32509619 26.36278668 -57 19 C-56.34 19 -55.68 19 -55 19 C-55 18.34 -55 17.68 -55 17 C-44.15859942 11.24891843 -33.02532239 7.11697655 -21.19140625 3.89453125 C-18.08885203 3.02490467 -15.04827424 2.0424834 -12 1 C-8.13170137 -0.28943288 -3.95701257 -1.22167961 0 0 Z " fill="#FDFDFD" transform="translate(208,146)"/>
<path d="M0 0 C0.8132373 -0.03440186 1.62647461 -0.06880371 2.46435547 -0.10424805 C6.50993669 -0.13327124 8.53640841 0.14341283 12.0234375 2.35546875 C14.79141875 6.67155018 14.7568964 10.1555365 14.625 15.1875 C14.61170654 16.08476807 14.59841309 16.98203613 14.5847168 17.90649414 C14.27946836 26.37539963 12.01232355 31.05781991 6.4375 37.3125 C-0.53040011 43.38707958 -5.95878606 44.08120727 -15.2265625 43.83203125 C-20.80713269 43.24855548 -24.16393002 41.49025176 -28 37.4375 C-33.1725436 30.61914707 -36.62149189 23.11872764 -36.30078125 14.42578125 C-35.75069892 10.78952273 -34.58645401 8.08018127 -32 5.4375 C-29.12382601 3.80105618 -26.22439494 3.11182118 -23 2.4375 C-21.60974609 2.13199219 -21.60974609 2.13199219 -20.19140625 1.8203125 C-13.49462197 0.57479593 -6.79704696 0.15787444 0 0 Z " fill="#050505" transform="translate(308,248.5625)"/>
<path d="M0 0 C1.13634888 0.0158313 1.13634888 0.0158313 2.2956543 0.03198242 C9.36114966 0.19564184 16.2419839 0.99737269 23.1875 2.3125 C24.86779297 2.621875 24.86779297 2.621875 26.58203125 2.9375 C31.00860938 3.8795529 34.32984598 4.64976735 37.9375 7.4375 C40.53694639 13.4162267 39.59199054 18.73271107 37.625 24.8125 C34.3527323 32.98172774 29.60929424 39.57113457 21.57421875 43.5 C15.74886369 45.48309959 10.28180331 44.99762803 4.5625 42.875 C-2.20215047 39.49267476 -7.42833796 33.37053085 -10.24560547 26.38012695 C-11.39923743 22.17250029 -11.24157729 17.89469173 -11.1875 13.5625 C-11.20490234 12.14517578 -11.20490234 12.14517578 -11.22265625 10.69921875 C-11.21878906 9.79300781 -11.21492187 8.88679688 -11.2109375 7.953125 C-11.20755371 7.13360352 -11.20416992 6.31408203 -11.20068359 5.46972656 C-10.10525938 -0.61780069 -5.13998816 -0.12403938 0 0 Z " fill="#050505" transform="translate(188.8125,248.6875)"/>
<path d="M0 0 C11.22 0 22.44 0 34 0 C34 22.77 34 45.54 34 69 C31.88955618 65.83433427 31.24447923 63.48802585 30.375 59.8125 C30.11460937 58.72582031 29.85421875 57.63914063 29.5859375 56.51953125 C29.39257812 55.68808594 29.19921875 54.85664062 29 54 C24.39985972 54.46890709 22.63253255 56.00168867 19.5625 59.375 C14.12877926 65.02478916 8.22774811 69.71624368 2.00390625 74.46240234 C-0.14544499 76.11159997 -2.27705042 77.78190662 -4.40625 79.45703125 C-11.51883911 85.04657875 -18.66213101 90.58304475 -26 95.875 C-26.58136719 96.29789307 -27.16273438 96.72078613 -27.76171875 97.15649414 C-31.7570168 100 -31.7570168 100 -34 100 C-33.53504425 95.6966861 -31.09008984 93.94113762 -27.9375 91.1875 C-27.43581299 90.74446533 -26.93412598 90.30143066 -26.41723633 89.8449707 C-24.95251767 88.5545285 -23.47648636 87.27696118 -22 86 C-20.72876683 84.89629369 -19.45788493 83.79218255 -18.1875 82.6875 C-17.57003906 82.15382813 -16.95257813 81.62015625 -16.31640625 81.0703125 C-14.33632166 79.30059103 -12.39661191 77.50157527 -10.46484375 75.6796875 C-9.51798706 74.78890503 -9.51798706 74.78890503 -8.55200195 73.88012695 C-7.27951424 72.67986457 -6.01102805 71.47534393 -4.74682617 70.26635742 C-0.22080457 66 -0.22080457 66 2 66 C2 65.34 2 64.68 2 64 C2.66 64 3.32 64 4 64 C4 63.34 4 62.68 4 62 C5.43359375 60.58984375 5.43359375 60.58984375 7.4375 58.9375 C16.81657643 50.91483321 24.15809428 42.26285859 31 32 C31.14221065 29.39754502 31.18802932 26.90882316 31.125 24.3125 C31.11597656 23.61060547 31.10695313 22.90871094 31.09765625 22.18554688 C31.07413704 20.45688475 31.03826713 18.72839855 31 17 C27.81936389 16.68475111 26.34404379 16.77927141 23.61328125 18.53125 C22.85402344 19.1809375 22.09476562 19.830625 21.3125 20.5 C17.18055556 24 17.18055556 24 15 24 C15 24.66 15 25.32 15 26 C13.53309441 27.3327188 11.99677499 28.58913869 10.4375 29.8125 C4.93824974 34.20762618 -0.39249335 38.76453329 -5.69555664 43.39379883 C-6.89083788 44.43613015 -8.08811705 45.4761758 -9.28759766 46.51367188 C-10.42512782 47.50102341 -11.55513301 48.49711475 -12.67724609 49.50195312 C-16.66851266 53 -16.66851266 53 -20 53 C-19.58878466 48.1101133 -17.16806534 45.55005304 -13.875 42.1875 C-12.8691325 41.12692686 -11.86392422 40.06572812 -10.859375 39.00390625 C-10.36888672 38.49102051 -9.87839844 37.97813477 -9.37304688 37.44970703 C-7.57414347 35.55036698 -5.84296359 33.59761749 -4.125 31.625 C-3.58746094 31.00882813 -3.04992187 30.39265625 -2.49609375 29.7578125 C-1.02598266 28.03052793 0.39315242 26.26904191 1.8125 24.5 C2.534375 23.675 3.25625 22.85 4 22 C4.66 22 5.32 22 6 22 C6.26167969 21.40574219 6.52335937 20.81148437 6.79296875 20.19921875 C8.06502512 17.88152381 9.35555287 16.5698472 11.3125 14.8125 C15.23089028 11.04166417 17.61442953 6.84809483 20 2 C14.12687575 4.69077058 9.55361975 7.70649916 4.75 12 C4.151875 12.52078125 3.55375 13.0415625 2.9375 13.578125 C0.4311429 15.77395998 -1.97884535 17.9781258 -4.296875 20.375 C-6 22 -6 22 -8 22 C-8 22.66 -8 23.32 -8 24 C-9.32 24.33 -10.64 24.66 -12 25 C-12 21 -12 21 -9.9375 18.875 C-9.48890625 18.45863281 -9.0403125 18.04226562 -8.578125 17.61328125 C-6.571526 15.56198079 -4.89081708 13.37167173 -3.1875 11.0625 C-2.28064453 9.84240234 -2.28064453 9.84240234 -1.35546875 8.59765625 C0.46261157 5.60177833 0.46261157 5.60177833 0 0 Z " fill="#F0F0F0" transform="translate(466,0)"/>
<path d="M0 0 C0.99 0 1.98 0 3 0 C2.09747668 4.50161765 -0.42326675 7.50499121 -3.1875 11.0625 C-4.28605868 12.50061318 -5.38367621 13.93944566 -6.48046875 15.37890625 C-7.34551025 16.51030029 -7.34551025 16.51030029 -8.22802734 17.66455078 C-11.19648477 21.57695967 -14.09588487 25.53973311 -17 29.5 C-21.38176888 35.46435857 -25.7954963 41.40229975 -30.25 47.3125 C-34.08045526 52.40938443 -37.88581445 57.52317798 -41.625 62.6875 C-42.24616699 63.53405151 -42.24616699 63.53405151 -42.87988281 64.39770508 C-45.18238572 67.60365426 -46.50047971 70.25119927 -48 74 C-44.04 74.33 -40.08 74.66 -36 75 C-36 75.66 -36 76.32 -36 77 C-59.43 77 -82.86 77 -107 77 C-107 72.38 -107 67.76 -107 63 C-105.02 62.34 -103.04 61.68 -101 61 C-99.08189104 59.60504899 -99.08189104 59.60504899 -97.52734375 57.8828125 C-96.93759766 57.27566406 -96.34785156 56.66851562 -95.74023438 56.04296875 C-95.14533203 55.41003906 -94.55042969 54.77710938 -93.9375 54.125 C-90.11774323 50.13666408 -86.38894316 46.37730732 -82 43 C-81.278125 42.2575 -80.55625 41.515 -79.8125 40.75 C-68.81818182 30 -68.81818182 30 -64 30 C-64.5458851 34.23318442 -67.11503244 37.08246872 -69.6875 40.3125 C-70.13867188 40.88701904 -70.58984375 41.46153809 -71.0546875 42.0534668 C-72.361241 43.7093549 -73.67823234 45.35624329 -75 47 C-75.63550781 47.7940625 -76.27101563 48.588125 -76.92578125 49.40625 C-78.22905253 50.9844048 -79.60596664 52.50141414 -81 54 C-81.66 54 -82.32 54 -83 54 C-83 54.66 -83 55.32 -83 56 C-83.66 56 -84.32 56 -85 56 C-85.2578125 56.57234375 -85.515625 57.1446875 -85.78125 57.734375 C-87.11365942 60.21128995 -88.65056118 62.1341166 -90.5 64.25 C-91.1084375 64.95640625 -91.716875 65.6628125 -92.34375 66.390625 C-94 68 -94 68 -96 68 C-96 68.66 -96 69.32 -96 70 C-96.99 70.495 -96.99 70.495 -98 71 C-98.33 71.99 -98.66 72.98 -99 74 C-94.97922848 74.05843491 -90.95856741 74.0937424 -86.9375 74.125 C-85.80376953 74.14175781 -84.67003906 74.15851563 -83.50195312 74.17578125 C-75.21217524 74.22411815 -68.91833074 74.04006291 -62.25 68.625 C-61.14398438 67.74714844 -61.14398438 67.74714844 -60.015625 66.8515625 C-57.93112878 65.05540085 -57.93112878 65.05540085 -56.359375 62.7734375 C-55.68648437 61.89558594 -55.68648437 61.89558594 -55 61 C-54.34 61 -53.68 61 -53 61 C-52.78214844 60.4740625 -52.56429687 59.948125 -52.33984375 59.40625 C-50.49142443 56.08663979 -48.04891952 53.34898981 -45.5625 50.5 C-45.03043945 49.88415039 -44.49837891 49.26830078 -43.95019531 48.63378906 C-39.5854466 43.60747986 -35.0805185 38.72092007 -30.55078125 33.84375 C-27.3631723 30.29002976 -24.43724394 26.57190675 -21.55859375 22.765625 C-21.04425781 22.18296875 -20.52992187 21.6003125 -20 21 C-19.34 21 -18.68 21 -18 21 C-17.73574219 20.40703125 -17.47148438 19.8140625 -17.19921875 19.203125 C-15.95629575 16.91970946 -14.69598354 15.52573277 -12.8125 13.75 C-9.50847881 10.54966148 -6.47586269 7.18813298 -3.48046875 3.69921875 C-2.36828828 2.42270555 -1.19716986 1.19716986 0 0 Z " fill="#F0F0F0" transform="translate(107,423)"/>
<path d="M0 0 C0.99 0 1.98 0 3 0 C3.27841968 4.03351594 2.58577503 6.21984733 0.5625 9.6875 C-2.61564637 15.7116136 -3.23372792 21.2603532 -2.8125 28 C-3.32481827 36.1970923 -8.40846197 44.00131869 -12.09375 51.20263672 C-15.30121575 57.48184375 -18.15759878 63.38663782 -19.1875 70.4375 C-19.34605469 71.48808594 -19.50460938 72.53867187 -19.66796875 73.62109375 C-19.77753906 74.40613281 -19.88710937 75.19117188 -20 76 C-18.68 76.66 -17.36 77.32 -16 78 C-16 78.33 -16 78.66 -16 79 C-34.81 79 -53.62 79 -73 79 C-72.505 78.01 -72.505 78.01 -72 77 C-69.7421875 76.5078125 -69.7421875 76.5078125 -66.875 76.125 C-58.17046407 74.6405055 -53.98864161 71.53685888 -48.578125 64.609375 C-48.05734375 64.07828125 -47.5365625 63.5471875 -47 63 C-46.01 63 -45.02 63 -44 63 C-44 65.66666667 -44 68.33333333 -44 71 C-39.33835927 64.23279296 -35.15512407 57.24769668 -31.0625 50.125 C-27.0494061 43.14763851 -22.95941173 36.25941641 -18.56982422 29.51098633 C-16.9472122 26.91556415 -15.49090877 24.26897224 -14.0625 21.5625 C-10.78563222 15.43158609 -6.9721071 9.69984664 -3 4 C-2.48824219 3.22527344 -1.97648437 2.45054687 -1.44921875 1.65234375 C-0.73185547 0.83443359 -0.73185547 0.83443359 0 0 Z " fill="#F6F6F6" transform="translate(158,421)"/>
<path d="M0 0 C0.66 0 1.32 0 2 0 C1.99887207 0.89195068 1.99774414 1.78390137 1.99658203 2.70288086 C2.00658299 6.05298552 2.04339388 9.40067318 2.09765625 12.75024414 C2.11568281 14.19220819 2.12340922 15.63434305 2.12011719 17.07641602 C2.10580028 27.40248206 3.37467544 34.17944313 10.77270508 41.83422852 C14.24867764 45.08505839 17.97757391 47.68954645 22.0078125 50.20703125 C28.12967435 54.06767404 34.16513023 58.04885978 40.1875 62.0625 C41.21552734 62.74376953 42.24355469 63.42503906 43.30273438 64.12695312 C46.21473513 66.06642387 49.11221134 68.02468849 52 70 C52.81936035 70.55800293 53.6387207 71.11600586 54.48291016 71.69091797 C55.20655762 72.20412598 55.93020508 72.71733398 56.67578125 73.24609375 C57.61224487 73.90436157 57.61224487 73.90436157 58.56762695 74.57592773 C60.30331033 76.30155261 60.61873378 77.61525462 61 80 C53.05801744 79.01992556 47.64150724 76.32193605 41 72 C33.59794527 67.50515897 26.04760873 63.4527771 18.27734375 59.640625 C14.72944085 57.86455919 11.28716784 55.95471729 7.8671875 53.9453125 C5.92320583 52.96112095 4.11389661 52.49490501 2 52 C2.06054779 69.62868556 2.13805702 87.25720412 2.23571491 104.88572121 C2.28066528 113.07109921 2.32008168 121.25643378 2.34643555 129.44189453 C2.3694218 136.57700761 2.40282678 143.71198315 2.44870156 150.84698713 C2.47262542 154.62433685 2.49135964 158.40155042 2.49761391 162.17897415 C2.50366863 165.73639441 2.52368203 169.29346636 2.55427551 172.8507576 C2.56722473 174.77471106 2.56548685 176.69874593 2.5632782 178.6227417 C2.5696632 186.75787571 2.5696632 186.75787571 6 194 C9.61761993 196.10771042 13.18046282 196.35255799 17.3125 196.625 C18.38113281 196.69976562 19.44976563 196.77453125 20.55078125 196.8515625 C21.76314453 196.92503906 21.76314453 196.92503906 23 197 C23 197.99 23 198.98 23 200 C21.80761719 200.17015625 20.61523438 200.3403125 19.38671875 200.515625 C17.82017239 200.75951844 16.2537734 201.00435971 14.6875 201.25 C13.90181641 201.35957031 13.11613281 201.46914062 12.30664062 201.58203125 C9.04289387 202.10978604 6.65141786 202.5012582 4 204.53125 C2.44611092 208.36741367 2.42472435 212.14579521 2.3125 216.25 C2.27833984 217.09046875 2.24417969 217.9309375 2.20898438 218.796875 C2.12676432 220.86412204 2.06169843 222.93203874 2 225 C1.34 225 0.68 225 0 225 C0 150.75 0 76.5 0 0 Z " fill="#F2F2F2" transform="translate(0,54)"/>
<path d="M0 0 C2.20388685 0.03982928 4.40738085 0.11131131 6.609375 0.2109375 C8.29933594 0.25154297 8.29933594 0.25154297 10.0234375 0.29296875 C12.80401737 0.36366146 15.58072859 0.4622871 18.359375 0.5859375 C17.41299462 1.71462558 16.46309314 2.84036192 15.51171875 3.96484375 C14.71882446 4.90565796 14.71882446 4.90565796 13.90991211 5.86547852 C12.359375 7.5859375 12.359375 7.5859375 9.921875 9.5234375 C6.97880755 11.89224789 4.68666484 14.52448265 2.23828125 17.390625 C0.35398189 19.59223881 -1.57539932 21.7460599 -3.515625 23.8984375 C-6.39142172 27.12682232 -9.16467214 30.41766159 -11.890625 33.7734375 C-21.19632977 45.21070541 -30.88222621 56.23514921 -41.05126953 66.91308594 C-42.50578905 68.44401801 -43.94702768 69.98639796 -45.38671875 71.53125 C-46.17175781 72.35367188 -46.95679688 73.17609375 -47.765625 74.0234375 C-48.42820312 74.72339844 -49.09078125 75.42335938 -49.7734375 76.14453125 C-51.640625 77.5859375 -51.640625 77.5859375 -55.640625 77.5859375 C-55.640625 76.2659375 -55.640625 74.9459375 -55.640625 73.5859375 C-54.980625 73.5859375 -54.320625 73.5859375 -53.640625 73.5859375 C-53.640625 72.5959375 -53.640625 71.6059375 -53.640625 70.5859375 C-52.980625 70.5859375 -52.320625 70.5859375 -51.640625 70.5859375 C-51.45318726 69.69805542 -51.45318726 69.69805542 -51.26196289 68.79223633 C-50.25896612 65.23071104 -48.09826402 62.33318023 -46.078125 59.2734375 C-45.59706299 58.53778564 -45.11600098 57.80213379 -44.62036133 57.04418945 C-37.83701249 46.74850954 -30.72338431 36.67653687 -23.640625 26.5859375 C-21.6691318 23.77292423 -19.6982326 20.95949647 -17.7277832 18.14575195 C-16.5385407 16.44825645 -15.3483364 14.75143419 -14.15698242 13.05541992 C-13.35224487 11.90843628 -13.35224487 11.90843628 -12.53125 10.73828125 C-12.01852539 10.02736328 -11.50580078 9.31644531 -10.97753906 8.58398438 C-9.4473593 6.41105341 -9.4473593 6.41105341 -8.015625 3.05078125 C-5.0998784 0.02473502 -4.09810937 0.16702488 0 0 Z " fill="#F4F4F4" transform="translate(441.640625,-0.5859375)"/>
<path d="M0 0 C0.99 0.33 1.98 0.66 3 1 C3.63649346 30.67267001 4.12629897 60.31974189 4 90 C-9.2 90 -22.4 90 -36 90 C-34.35 88.35 -32.7 86.7 -31 85 C-29.92515349 83.02717491 -29.92515349 83.02717491 -29.41796875 81.01171875 C-29.10375977 79.95307617 -29.10375977 79.95307617 -28.78320312 78.87304688 C-28.58662109 78.15181641 -28.39003906 77.43058594 -28.1875 76.6875 C-27.86362305 75.57665039 -27.86362305 75.57665039 -27.53320312 74.44335938 C-27.00763072 72.63305443 -26.50176957 70.81704641 -26 69 C-25.01 69.33 -24.02 69.66 -23 70 C-22.95101562 70.97582031 -22.90203125 71.95164062 -22.8515625 72.95703125 C-22.77679688 74.22933594 -22.70203125 75.50164062 -22.625 76.8125 C-22.55539063 78.07707031 -22.48578125 79.34164062 -22.4140625 80.64453125 C-22.23897061 84.12755234 -22.23897061 84.12755234 -20 87 C-19.01 87 -18.02 87 -17 87 C-14.07959977 81.81864476 -12.5382541 77.8273673 -12.17578125 71.8828125 C-12 70 -12 70 -11 68 C-10.59984944 65.55908156 -10.24210669 63.12652889 -9.9140625 60.67578125 C-9.70315837 59.15559433 -9.49221965 57.63541221 -9.28125 56.11523438 C-8.95531293 53.73545725 -8.63083789 51.35548935 -8.30761719 48.9753418 C-7.03835687 39.66710531 -5.55950344 30.48925984 -3.64697266 21.28881836 C-2.81947677 17.08232887 -2.28688964 12.88926921 -1.875 8.625 C-1.125 1.125 -1.125 1.125 0 0 Z " fill="#F0F0F0" transform="translate(242,410)"/>
<path d="M0 0 C7.26 0 14.52 0 22 0 C28.88546309 13.5987896 35.35465943 27.35815174 41.40625 41.34765625 C42.79230203 44.52402548 44.22571493 47.67055344 45.6875 50.8125 C52.72570499 66.28722885 52.72570499 66.28722885 52 73 C46.71241786 72.35979947 44.59042141 68.28362031 41.48828125 64.34375 C33.9718378 54.37313892 27.5751605 43.73017916 21.3125 32.9453125 C18.86740071 28.74655593 16.29419386 24.64027334 13.65234375 20.5625 C12.47848266 18.74204403 11.32706671 16.90702843 10.19140625 15.0625 C7.13682953 10.1226254 4.22558621 5.96949008 0 2 C0 1.34 0 0.68 0 0 Z " fill="#F5F5F5" transform="translate(115,0)"/>
<path d="M0 0 C3.35279237 1.11759746 3.7062547 1.64914791 5.625 4.4375 C8.74738717 8.7715598 12.22676193 12.66962882 15.828125 16.609375 C18.12119263 19.13339908 20.33348404 21.71211509 22.515625 24.33203125 C24.58105337 26.6529205 26.7994008 28.80668438 29 31 C30.00421229 32.00840423 31.00785095 33.01737995 32.01098633 34.02685547 C34.97176904 37.00552145 37.93566654 39.98106697 40.90063477 42.95556641 C42.17074662 44.23070616 43.43995939 45.50674211 44.70825195 46.78369141 C53.71544984 55.87399471 53.71544984 55.87399471 63.2175293 64.43798828 C67.36332885 68.07102835 71.14223773 72.10595331 75 76.0390625 C78.91554413 80.00049191 82.93319816 83.75216355 87.15234375 87.38818359 C89.69834938 89.60921017 92.10146751 91.93247471 94.5 94.3125 C95.3559375 95.15425781 96.211875 95.99601562 97.09375 96.86328125 C99 99 99 99 99 101 C95.11649732 100.43384016 93.24229686 98.66155353 90.4375 96 C86.90314904 92.71958335 83.32122449 89.58348058 79.5625 86.5625 C75.75912497 83.48663412 72.09917348 80.31246834 68.5 77 C63.17388735 72.10512091 57.63278603 67.53528044 52 63 C50.29025301 61.60589861 48.58194587 60.2100297 46.875 58.8125 C45.97265625 58.07644531 45.0703125 57.34039062 44.140625 56.58203125 C41.74088591 54.61710727 39.36092596 52.62961376 36.984375 50.63671875 C28.58984108 43.62020749 20.13736203 37.02435731 11 31 C9.99324219 30.32195313 8.98648437 29.64390625 7.94921875 28.9453125 C5.12111809 26.9848303 5.12111809 26.9848303 2.34619141 25.72485352 C-0 24 -0 24 -0.56762695 21.45629883 C-0.54144287 20.46654053 -0.51525879 19.47678223 -0.48828125 18.45703125 C-0.47216797 17.38388672 -0.45605469 16.31074219 -0.43945312 15.20507812 C-0.39755859 14.08552734 -0.35566406 12.96597656 -0.3125 11.8125 C-0.28994141 10.68134766 -0.26738281 9.55019531 -0.24414062 8.38476562 C-0.18514811 5.58852024 -0.1028824 2.79491903 0 0 Z " fill="#F0F0F0" transform="translate(0,7)"/>
<path d="M0 0 C18.48 0 36.96 0 56 0 C56.66 3.3 57.32 6.6 58 10 C54 9 54 9 51.8125 7.625 C44.33928788 3.30714411 36.94489154 2.50956069 28.4375 2.3125 C27.42880859 2.27833984 26.42011719 2.24417969 25.38085938 2.20898438 C22.92068432 2.12736719 20.46082691 2.05794324 18 2 C20.90205491 7.27458796 24.12033766 12.17134058 27.625 17.0625 C28.14989014 17.80056885 28.67478027 18.5386377 29.21557617 19.29907227 C30.80700495 21.53514868 32.4029014 23.76797077 34 26 C34.92066613 27.28899593 35.84124439 28.57805462 36.76171875 29.8671875 C38.35574041 32.09935333 39.95228312 34.32962342 41.55078125 36.55859375 C48.45210171 46.23792134 55.15412999 56.04745745 61.78198242 65.91552734 C62.89454744 67.56837796 64.01082149 69.21873744 65.13061523 70.86669922 C66.76126639 73.26729451 68.37987027 75.67561286 69.99609375 78.0859375 C70.49910507 78.82137787 71.00211639 79.55681824 71.52037048 80.31454468 C71.97827469 81.00271271 72.43617889 81.69088074 72.90795898 82.39990234 C73.31320297 83.00039398 73.71844696 83.60088562 74.13597107 84.21957397 C75 86 75 86 75 90 C66.52072455 86.35802046 61.08400311 76.63157561 55.64453125 69.46484375 C52.93448517 65.89771394 50.15626251 62.38668052 47.375 58.875 C44.22726845 54.88986331 41.14769468 50.87786209 38.1875 46.75 C21.84669594 21.48539543 21.84669594 21.48539543 0 2 C0 1.34 0 0.68 0 0 Z " fill="#EFEFEF" transform="translate(56,0)"/>
<path d="M0 0 C3 0 3 0 5.19921875 2.0390625 C5.63024902 2.49700195 6.0612793 2.95494141 6.50537109 3.42675781 C8.18249093 5.19208944 9.93213999 6.85648184 11.70703125 8.5234375 C12.37669922 9.1525 13.04636719 9.7815625 13.73632812 10.4296875 C14.42146484 11.07164062 15.10660156 11.71359375 15.8125 12.375 C16.82280273 13.32632812 16.82280273 13.32632812 17.85351562 14.296875 C21.90132907 18.09291058 26.01370359 21.79767998 30.20288086 25.43701172 C32.4498546 27.391247 34.66499426 29.37911246 36.875 31.375 C37.71933594 32.13554687 38.56367188 32.89609375 39.43359375 33.6796875 C41.11697748 35.20165087 42.79679835 36.72756626 44.47265625 38.2578125 C48.59853218 42.01098648 52.76541611 45.64515277 57.125 49.125 C62.92585778 53.8023057 68.30697703 58.89065859 73.69384766 64.03564453 C74.68263916 64.97706299 74.68263916 64.97706299 75.69140625 65.9375 C76.28123291 66.50339844 76.87105957 67.06929688 77.47875977 67.65234375 C78.9759963 69.09564596 78.9759963 69.09564596 81 70 C81 73.63 81 77.26 81 81 C72.75 81 64.5 81 56 81 C56 80.67 56 80.34 56 80 C60.95 79.505 60.95 79.505 66 79 C62.54935506 75.45106227 62.54935506 75.45106227 58.6875 72.375 C58.130625 71.92125 57.57375 71.4675 57 71 C57 70.01 57 69.02 57 68 C56.34 68 55.68 68 55 68 C54.91363281 67.33613281 54.82726562 66.67226563 54.73828125 65.98828125 C53.57812168 58.69737022 51.53343098 55.69656575 45.625 51.1875 C43.48228919 49.40190766 41.90478441 47.79418359 40.125 45.6875 C36.46939663 41.39578944 32.50439944 37.46157685 28.5 33.5 C24.12114397 29.15912465 19.83348352 24.82534494 15.84350586 20.12036133 C14.10498936 18.12075653 12.31439129 16.20117501 10.4765625 14.29296875 C9.51472046 13.28266602 9.51472046 13.28266602 8.53344727 12.25195312 C7.23518249 10.89209595 5.93110257 9.53776323 4.62084961 8.18945312 C4.0253833 7.56361328 3.42991699 6.93777344 2.81640625 6.29296875 C2.27443604 5.7311792 1.73246582 5.16938965 1.17407227 4.59057617 C0 3 0 3 0 0 Z " fill="#F3F3F3" transform="translate(419,419)"/>
<path d="M0 0 C16.17 0 32.34 0 49 0 C47.35 1.32 45.7 2.64 44 4 C41.36293559 7.57887312 40.51121902 10.60351646 40 15 C39.01 15 38.02 15 37 15 C36.90203125 14.31292969 36.8040625 13.62585937 36.703125 12.91796875 C36.55359375 12.01691406 36.4040625 11.11585937 36.25 10.1875 C36.11078125 9.29417969 35.9715625 8.40085937 35.828125 7.48046875 C34.8117335 4.43608855 33.76912827 3.55700069 31 2 C25.80917122 1.42324125 22.31649609 2.02641381 18 5 C14.27170938 10.46436488 12.98762423 15.46231535 11.9375 21.9375 C11.69217529 23.36255859 11.69217529 23.36255859 11.44189453 24.81640625 C9.74489485 34.96198095 8.52803302 45.16692058 7.3203125 55.37988281 C6.76095425 59.95536511 6.07683531 64.51052656 5.40234375 69.0703125 C4.89817852 72.74141854 4.54568772 76.41642078 4.24609375 80.109375 C4 82 4 82 3 84 C2.01 83.67 1.02 83.34 0 83 C0 55.61 0 28.22 0 0 Z " fill="#F4F4F4" transform="translate(255,0)"/>
<path d="M0 0 C-1.37352928 3.11836333 -2.91838973 5.11865428 -5.4140625 7.42578125 C-6.09339844 8.05806641 -6.77273437 8.69035156 -7.47265625 9.34179688 C-8.18292969 9.99212891 -8.89320312 10.64246094 -9.625 11.3125 C-10.31207031 11.95123047 -10.99914063 12.58996094 -11.70703125 13.24804688 C-15.80910457 17.04612039 -19.97819841 20.75606454 -24.21484375 24.40332031 C-26.01588095 26.01420424 -27.69586243 27.7007053 -29.375 29.4375 C-32 32 -32 32 -34 32 C-34 32.66 -34 33.32 -34 34 C-35.35546875 35.33203125 -35.35546875 35.33203125 -37.1875 36.8125 C-40.30299226 39.39729718 -43.17018046 42.09943497 -46 45 C-46.51409424 45.49508057 -47.02818848 45.99016113 -47.55786133 46.50024414 C-51.89443975 50.70569225 -55.60830379 55.14085716 -59.1875 60 C-59.69474609 60.67289062 -60.20199219 61.34578125 -60.72460938 62.0390625 C-63.82707207 66.20787099 -66.51114502 70.4380892 -69 75 C-69.33 75 -69.66 75 -70 75 C-70 53.55 -70 32.1 -70 10 C-69.01 10.495 -69.01 10.495 -68 11 C-68 11.66 -68 12.32 -68 13 C-63.09908567 11.69834871 -58.43082174 10.44661676 -54.0625 7.8125 C-51 6 -51 6 -48 6 C-49.49041773 9.79379058 -51.69062512 11.68343758 -55 14 C-55.66 14 -56.32 14 -57 14 C-57 14.66 -57 15.32 -57 16 C-57.721875 16.66 -58.44375 17.32 -59.1875 18 C-68.43023981 27.24273981 -67.90887771 38.72529168 -68 51 C-65.54006484 49.16878276 -63.08170157 47.33554847 -60.625 45.5 C-59.89780762 44.95698242 -59.17061523 44.41396484 -58.42138672 43.85449219 C-53.451024 40.12809744 -48.59176787 36.30703355 -43.8203125 32.328125 C-42 31 -42 31 -40 31 C-40 30.34 -40 29.68 -40 29 C-37.86400294 27.35900226 -35.72410982 25.82536771 -33.5 24.3125 C-28.71066122 20.98029071 -24.18410013 17.57971166 -19.859375 13.65234375 C-16.39470552 10.57344629 -12.69827268 7.79027383 -9 5 C-8.32195313 4.48824219 -7.64390625 3.97648437 -6.9453125 3.44921875 C-2.26214789 0 -2.26214789 0 0 0 Z " fill="#F1F1F1" transform="translate(70,400)"/>
<path d="M0 0 C2.65678386 0.36946014 3.79966432 0.79055286 5.68017578 2.7565918 C6.49204346 3.87287964 6.49204346 3.87287964 7.3203125 5.01171875 C7.92520508 5.82688965 8.53009766 6.64206055 9.15332031 7.48193359 C9.76272461 8.31289551 10.37212891 9.14385742 11 10 C12.13783663 11.4690364 13.28093634 12.93401391 14.4296875 14.39453125 C15.57832592 15.86703079 16.72675948 17.33969016 17.875 18.8125 C18.48577393 19.59584717 19.09654785 20.37919434 19.72583008 21.1862793 C23.10027281 25.52433914 26.42395808 29.89054771 29.6875 34.3125 C38.73160277 46.42723507 48.42323678 58.43709738 61 67 C61 67.33 61 67.66 61 68 C48.46 68 35.92 68 23 68 C23 67.34 23 66.68 23 66 C26.96 66 30.92 66 35 66 C29.71921892 54.91035973 23.32321002 44.47982655 16.96484375 33.984375 C12.26808425 26.2259307 7.58435872 18.4684755 3.25 10.5 C2.91468262 9.89526855 2.57936523 9.29053711 2.23388672 8.66748047 C0.49642791 5.40892565 0 3.8101354 0 0 Z " fill="#F4F4F4" transform="translate(355,432)"/>
<path d="M0 0 C11.55 0 23.1 0 35 0 C34.01 0.99 33.02 1.98 32 3 C31.21281986 7.76540234 31.75678697 12.6080751 33 17.25 C33.92294251 20.71103443 34.1776382 23.44723598 34 27 C33.01 27 32.02 27 31 27 C30.68869141 26.16082031 30.68869141 26.16082031 30.37109375 25.3046875 C27.41306563 17.60638837 23.75932324 10.32856834 20 3 C20.22236328 4.90845703 20.22236328 4.90845703 20.44921875 6.85546875 C20.82538307 10.23040711 21.13913428 13.60212662 21.39453125 16.98828125 C22.18578994 27.22866304 23.47515642 37.08211906 25.67016602 47.11743164 C27.01378924 53.46214027 27.47493846 59.5091744 27 66 C26.01 66 25.02 66 24 66 C23.74605469 65.154375 23.49210937 64.30875 23.23046875 63.4375 C21.00508122 56.02461057 21.00508122 56.02461057 18.375 48.75 C17.38383726 46.04682889 16.68792321 43.77291803 16.125 41 C13.29133913 27.67722349 8.36724088 15.97547291 2 4 C1.34 2.68 0.68 1.36 0 0 Z " fill="#F3F3F3" transform="translate(185,0)"/>
<path d="M0 0 C7.59 0 15.18 0 23 0 C21.02 2.31 19.04 4.62 17 7 C11.69392141 13.28692592 7.74310504 19.77792955 4.0625 27.125 C3.0188086 29.16826482 1.97453742 31.21123361 0.9296875 33.25390625 C0.42920898 34.23891113 -0.07126953 35.22391602 -0.58691406 36.23876953 C-2.44695372 39.87336673 -4.3719428 43.47045635 -6.3125 47.0625 C-9.51916633 53.04069005 -12.5658146 59.08291533 -15.5546875 65.171875 C-17 68 -17 68 -19 71 C-19.66 71 -20.32 71 -21 71 C-20.71747783 60.08437064 -17.08909813 49.50123271 -11.90234375 39.9609375 C-10.36900732 36.62875185 -9.61689065 33.07995678 -8.71484375 29.53515625 C-7.8464666 26.45550178 -6.50319076 23.81848268 -5 21 C-4.20859519 19.04209747 -3.47997175 17.0692831 -2.765625 15.08203125 C-2.2467261 13.67094394 -1.69326516 12.27217742 -1.109375 10.88671875 C-0.82578125 10.20222656 -0.5421875 9.51773437 -0.25 8.8125 C0.01296875 8.20019531 0.2759375 7.58789062 0.546875 6.95703125 C1.25735706 4.50036526 1.25735706 4.50036526 0 0 Z " fill="#F3F3F3" transform="translate(351,0)"/>
<path d="M0 0 C1.32 0.33 2.64 0.66 4 1 C4.29687631 9.23007099 3.3642393 16.89752468 2 25 C0.63462994 33.33060249 -0.17908291 41.37942052 -0.1875 49.8125 C-0.1887085 50.98752075 -0.1887085 50.98752075 -0.18994141 52.1862793 C-0.23114934 56.22444804 -0.23114934 56.22444804 1 60 C-7.58 60 -16.16 60 -25 60 C-22.525 57.525 -22.525 57.525 -20 55 C-19.34 55 -18.68 55 -18 55 C-17.87109375 54.26136719 -17.7421875 53.52273438 -17.609375 52.76171875 C-17.049413 50.22394227 -16.30081949 48.17684386 -15.25 45.8125 C-13.3178736 41.1211859 -11.93643672 36.39027161 -10.625 31.5 C-8.86987655 24.97535443 -6.94967937 18.53522775 -4.8125 12.125 C-4.43762451 10.99288086 -4.43762451 10.99288086 -4.05517578 9.83789062 C-2.90705849 6.43617647 -1.73893081 3.14820648 0 0 Z " fill="#F3F3F3" transform="translate(199,440)"/>
<path d="M0 0 C0.99 0 1.98 0 3 0 C4.21957997 5.05254558 5.1663521 10.0242645 5.83203125 15.1796875 C6.96433048 23.23100848 8.57404043 31.15095956 10.29418945 39.09521484 C10.811417 41.49497523 11.3132067 43.89763887 11.81445312 46.30078125 C15.60757102 64.37333752 15.60757102 64.37333752 25 80 C18.4 80 11.8 80 5 80 C4.51688216 73.62527526 4.03660391 67.25039617 3.5625 60.875 C3.49274963 59.93738831 3.42299927 58.99977661 3.35113525 58.03375244 C2.49622735 46.48168824 1.67663793 34.93820842 1.29125977 23.35888672 C1.133603 18.83619803 0.65588148 14.48452294 0 10 C-0.0616181 8.1884279 -0.08732808 6.37494968 -0.0625 4.5625 C-0.05347656 3.69753906 -0.04445313 2.83257812 -0.03515625 1.94140625 C-0.02355469 1.30074219 -0.01195312 0.66007812 0 0 Z " fill="#F2F2F2" transform="translate(281,420)"/>
<path d="M0 0 C2.25 0.0625 2.25 0.0625 5 1 C7.8098823 5.04953625 9.51979415 9.1655419 11.16015625 13.78515625 C12.11871174 16.31306771 13.23329632 18.73692731 14.375 21.1875 C16.75396841 26.34550357 18.81527575 31.58686685 20.82421875 36.8984375 C21.81333418 39.50759913 22.83033021 42.10027525 23.875 44.6875 C24.58434397 46.45792875 25.2924746 48.22884371 26 50 C26.28198242 50.70447266 26.56396484 51.40894531 26.85449219 52.13476562 C27.82514001 54.56687188 28.78808917 57.00192638 29.75 59.4375 C30.0682373 60.2318042 30.38647461 61.0261084 30.71435547 61.84448242 C31.15739014 62.97140503 31.15739014 62.97140503 31.609375 64.12109375 C32.0110791 65.13320923 32.0110791 65.13320923 32.42089844 66.16577148 C33 68 33 68 33 71 C27.72 71 22.44 71 17 71 C17.144375 69.185 17.28875 67.37 17.4375 65.5 C17.42012564 48.24726331 9.41625253 30.81722446 3.69921875 14.7734375 C3.40321777 13.94038086 3.1072168 13.10732422 2.80224609 12.24902344 C2.13005855 10.36460723 1.45065683 8.48276649 0.76953125 6.6015625 C0 4 0 4 0 0 Z " fill="#F2F2F2" transform="translate(312,429)"/>
<path d="M0 0 C3 0 3 0 5.359375 2.1484375 C6.66648437 3.55996094 6.66648437 3.55996094 8 5 C8.85078125 5.89976562 9.7015625 6.79953125 10.578125 7.7265625 C15.08441811 12.61496818 19.49597266 17.52255037 23.6875 22.6875 C24.41453125 23.58210938 25.1415625 24.47671875 25.890625 25.3984375 C27.2599699 27.08729621 28.62482869 28.77980589 29.984375 30.4765625 C36.91517898 38.76580405 44.31947002 43.27733387 55 45 C55 45.33 55 45.66 55 46 C43.78 46 32.56 46 21 46 C21 45.34 21 44.68 21 44 C21.66 44 22.32 44 23 44 C21.9740562 37.33327936 20.00916717 32.75733968 16 27.375 C15.01348253 25.99278692 14.02782703 24.60995828 13.04296875 23.2265625 C12.28959229 22.18290527 12.28959229 22.18290527 11.52099609 21.11816406 C9.06495623 17.69784273 6.67863527 14.2329029 4.3125 10.75 C3.87873047 10.13044434 3.44496094 9.51088867 2.99804688 8.87255859 C0.7282236 5.52984577 0 4.16888265 0 0 Z " fill="#F4F4F4" transform="translate(402,454)"/>
<path d="M0 0 C0.33 0 0.66 0 1 0 C1 16.5 1 33 1 50 C0.34 50 -0.32 50 -1 50 C-1.66 42.74 -2.32 35.48 -3 28 C-10.63039903 28.52318555 -10.63039903 28.52318555 -16.61328125 31.29296875 C-17.38091797 31.75598389 -18.14855469 32.21899902 -18.93945312 32.69604492 C-19.72255859 33.1882251 -20.50566406 33.68040527 -21.3125 34.1875 C-22.97375031 35.19000667 -24.63651177 36.19001351 -26.30078125 37.1875 C-27.10080566 37.67089844 -27.90083008 38.15429688 -28.72509766 38.65234375 C-41.12826087 46 -41.12826087 46 -46 46 C-45.67768719 42.97574578 -44.98850107 41.98870316 -42.77734375 39.81640625 C-37.35078247 35.5094931 -31.96122188 31.52102077 -26 28 C-9.88845279 18.8539481 -9.88845279 18.8539481 -0.75 3.625 C-0.5025 2.42875 -0.255 1.2325 0 0 Z " fill="#EEEEEE" transform="translate(499,89)"/>
<path d="M0 0 C0.66 0 1.32 0 2 0 C2 50.82 2 101.64 2 154 C0 152 0 152 -1.375 148.625 C-4.85208545 140.86842477 -11.86854961 137.35357703 -19.36328125 134.02734375 C-21 133 -21 133 -22 130 C-22.66 130 -23.32 130 -24 130 C-24 129.01 -24 128.02 -24 127 C-18.654876 127.43338843 -14.43107817 129.52724696 -9.68359375 131.84375 C-7.10094433 132.95650724 -4.76840557 133.55945806 -2 134 C-0.83972477 127.51780208 -0.8272239 121.12016285 -0.79467773 114.54711914 C-0.77982834 112.68753067 -0.77982834 112.68753067 -0.76467896 110.79037476 C-0.73859494 107.40867098 -0.71669054 104.02698951 -0.69667697 100.6452477 C-0.67472319 97.10449205 -0.6473807 93.56377802 -0.62062073 90.02305603 C-0.57082026 83.32615257 -0.52583483 76.62922585 -0.48259836 69.93227714 C-0.43311751 62.30466295 -0.37823981 54.67709052 -0.32291877 47.0495168 C-0.20929301 31.36638319 -0.10241216 15.68321108 0 0 Z " fill="#F4F4F4" transform="translate(498,226)"/>
<path d="M0 0 C3.96166284 1.98083142 5.44900579 3.39784313 8.25 6.6875 C11.65545051 10.57306321 15.14887918 14.01781541 19.08984375 17.34765625 C23.05988009 20.78185947 26.65308774 24.6166847 30.3125 28.375 C33.64630084 31.63127059 37.115252 34.72033961 40.59765625 37.81640625 C41.39042969 38.53699219 42.18320312 39.25757813 43 40 C43.76183594 40.68964844 44.52367187 41.37929687 45.30859375 42.08984375 C47 44 47 44 47 47 C43.46797461 47.46268229 42.11286141 47.07169843 39.0546875 45.12890625 C37.98472949 44.28605643 36.92527793 43.42974981 35.875 42.5625 C35.3080542 42.1094751 34.7411084 41.6564502 34.15698242 41.18969727 C32.42883875 39.80404245 30.71442173 38.40257217 29 37 C28.02933594 36.22398438 27.05867188 35.44796875 26.05859375 34.6484375 C20.6389661 30.28498196 15.41429624 25.74824187 10.2890625 21.04296875 C5.61092207 16.7552449 5.61092207 16.7552449 0 14 C0 9.38 0 4.76 0 0 Z " fill="#EDEDED" transform="translate(0,34)"/>
<path d="M0 0 C4.16803204 1.26693485 7.70535439 2.82321263 11.4375 5.0625 C12.47003906 5.67867188 13.50257813 6.29484375 14.56640625 6.9296875 C15.11699707 7.26194336 15.66758789 7.59419922 16.23486328 7.93652344 C18.11957724 9.07204405 20.0104443 10.19680813 21.90234375 11.3203125 C23.22677319 12.10902131 24.55099494 12.89807899 25.875 13.6875 C26.80203735 14.23966187 26.80203735 14.23966187 27.74780273 14.80297852 C30.6473543 16.54208261 33.46788799 18.31845486 36.265625 20.22265625 C38.96557848 21.97762601 40.83369477 22.6274935 44 23 C44.33 19.7 44.66 16.4 45 13 C45.33 13 45.66 13 46 13 C46 23.23 46 33.46 46 44 C43.40289351 42.70144675 43.13104429 41.46614031 41.875 38.875 C39.05884573 33.69980635 35.63622594 30.55520117 31 27 C30.01902344 26.24332031 29.03804688 25.48664063 28.02734375 24.70703125 C24.05325314 21.68829824 20.07840995 18.71711525 15.921875 15.953125 C13.31011324 14.20729495 10.83904826 12.38348864 8.375 10.4375 C5.12785593 7.87929778 5.12785593 7.87929778 1.7265625 5.53515625 C1.15679687 5.02855469 0.58703125 4.52195312 0 4 C0 2.68 0 1.36 0 0 Z " fill="#F1F1F1" transform="translate(454,387)"/>
<path d="M0 0 C10.89 0 21.78 0 33 0 C30.5885192 2.4114808 28.60426477 2.56217307 25.36328125 3.296875 C21.74469622 4.37347881 18.52704261 6.11834638 15.19921875 7.87890625 C13 9 13 9 10 10 C10 13.63 10 17.26 10 21 C6.26930717 20.25386143 3.42595393 19.46826597 0 18 C-0.20625 19.134375 -0.4125 20.26875 -0.625 21.4375 C-1.91624415 26.61169976 -4.51424258 30.9805381 -8 35 C-10.1953125 36.2578125 -10.1953125 36.2578125 -12 37 C-11.49130954 31.1423523 -9.73713536 26.73363321 -7.125 21.5 C-5.742931 18.6700492 -4.36801935 15.83676848 -3 13 C-2.69416992 12.37996094 -2.38833984 11.75992187 -2.07324219 11.12109375 C-0.09737 6.89537414 0 4.97642555 0 0 Z " fill="#F6F6F6" transform="translate(381,0)"/>
<path d="M0 0 C8.25 0 16.5 0 25 0 C24 2 24 2 21.1875 3.1875 C15.34440386 6.51004487 13.29345728 13.27417211 11.0625 19.375 C10.80871582 20.05256348 10.55493164 20.73012695 10.29345703 21.42822266 C8.92426756 25.16634082 7.70953298 28.91379626 6.64453125 32.75 C6.42982178 33.5229541 6.2151123 34.2959082 5.99389648 35.09228516 C5.58842743 36.58780218 5.19801277 38.08750116 4.82446289 39.59130859 C3.46044919 44.68354583 3.46044919 44.68354583 0.8515625 46.4765625 C0.24054688 46.64929687 -0.37046875 46.82203125 -1 47 C-0.88398175 44.85366231 -0.75667743 42.70793393 -0.625 40.5625 C-0.52058594 38.77005859 -0.52058594 38.77005859 -0.4140625 36.94140625 C-0.10671422 34.0157986 0.32065955 31.52692779 1.0234375 28.70703125 C2.24305539 23.50114177 2.29514066 18.45159793 2.25 13.125 C2.25773437 12.18914063 2.26546875 11.25328125 2.2734375 10.2890625 C2.27085937 9.391875 2.26828125 8.4946875 2.265625 7.5703125 C2.26336914 6.76352051 2.26111328 5.95672852 2.25878906 5.12548828 C2.12532325 2.70040892 2.12532325 2.70040892 0 0 Z " fill="#F4F4F4" transform="translate(308,0)"/>
<path d="M0 0 C8.91 0 17.82 0 27 0 C27.99 2.97 28.98 5.94 30 9 C31.42095253 11.67522078 31.42095253 11.67522078 33.06640625 13.89453125 C33.63423828 14.70470703 34.20207031 15.51488281 34.78710938 16.34960938 C35.37298828 17.16236328 35.95886719 17.97511719 36.5625 18.8125 C37.73255623 20.46336622 38.90060454 22.11565784 40.06640625 23.76953125 C40.58146729 24.48729736 41.09652832 25.20506348 41.62719727 25.94458008 C42.93679051 27.90536 43.99719346 29.86877379 45 32 C45.66 32 46.32 32 47 32 C47.66 33.98 48.32 35.96 49 38 C45.39795774 37.42977151 43.857756 36.1685868 41.42578125 33.5 C40.76271973 32.78175049 40.0996582 32.06350098 39.41650391 31.32348633 C38.72218262 30.55673584 38.02786133 29.78998535 37.3125 29 C35.86916049 27.44078493 34.4251556 25.88218552 32.98046875 24.32421875 C31.65332963 22.88310363 30.32647264 21.4417286 29 20 C20.46758032 10.77609624 11.82070733 5.27557499 0 1 C0 0.67 0 0.34 0 0 Z " fill="#EEEEEE" transform="translate(26,0)"/>
<path d="M0 0 C9.4559765 3.47767962 17.32800219 10.69338607 25.2902832 16.73583984 C25.942146 17.22906738 26.59400879 17.72229492 27.265625 18.23046875 C28.20704346 18.95580811 28.20704346 18.95580811 29.16748047 19.69580078 C31.19247071 21.20550496 31.19247071 21.20550496 34.4609375 22.75390625 C37 25 37 25 37.46484375 27.08862305 C37.59198479 29.66963737 37.52360221 32.17041808 37.375 34.75 C37.33439453 36.08224609 37.33439453 36.08224609 37.29296875 37.44140625 C37.22236624 39.63008395 37.12385527 41.81379568 37 44 C35 43 35 43 34.39453125 41.25 C34.20246094 40.5075 34.01039063 39.765 33.8125 39 C29.65217824 26.00667984 16.6755995 15.75091033 6.19140625 7.75390625 C3.94756987 5.95803721 1.92479592 4.13525196 0 2 C0 1.34 0 0.68 0 0 Z " fill="#ECECEC" transform="translate(463,422)"/>
<path d="M0 0 C0.66 0 1.32 0 2 0 C2 8.25 2 16.5 2 25 C-2.08135422 25.86474441 -6.16462151 26.71717196 -10.25 27.5625 C-11.40886719 27.80935547 -12.56773437 28.05621094 -13.76171875 28.31054688 C-15.43427734 28.65375977 -15.43427734 28.65375977 -17.140625 29.00390625 C-18.16704102 29.21861572 -19.19345703 29.4333252 -20.25097656 29.65454102 C-22.8930768 29.98656338 -24.50892539 29.85728404 -27 29 C-26.63343005 26.59972006 -26.43948298 25.3511274 -24.50390625 23.8046875 C-17.07558443 20.24746297 -10.23059565 19 -2 19 C-1.34 12.73 -0.68 6.46 0 0 Z " fill="#EAEAEA" transform="translate(498,162)"/>
<path d="M0 0 C0 0.99 0 1.98 0 3 C-1.58544922 4.53051758 -1.58544922 4.53051758 -3.8046875 6.14453125 C-4.61679687 6.73943359 -5.42890625 7.33433594 -6.265625 7.94726562 C-7.12671875 8.56279297 -7.9878125 9.17832031 -8.875 9.8125 C-9.69742187 10.41642578 -10.51984375 11.02035156 -11.3671875 11.64257812 C-15.63998901 14.74369735 -19.89682663 17.51883602 -24.53125 20.05078125 C-28.3433276 22.28738231 -28.3433276 22.28738231 -30.4140625 26.2109375 C-30.48367187 27.25507813 -30.55328125 28.29921875 -30.625 29.375 C-30.72039063 30.43460937 -30.81578125 31.49421875 -30.9140625 32.5859375 C-30.94242188 33.38257813 -30.97078125 34.17921875 -31 35 C-31.33 35 -31.66 35 -32 35 C-32 28.4 -32 21.8 -32 15 C-30.09927734 14.00419922 -30.09927734 14.00419922 -28.16015625 12.98828125 C-26.4609079 12.09641057 -24.76169082 11.20448029 -23.0625 10.3125 C-22.23169922 9.87744141 -21.40089844 9.44238281 -20.54492188 8.99414062 C-19.71669922 8.55908203 -18.88847656 8.12402344 -18.03515625 7.67578125 C-17.20129395 7.23830566 -16.36743164 6.80083008 -15.50830078 6.35009766 C-12.29180938 4.61881505 -9.14315622 2.77719583 -6.00561523 0.90698242 C-4 0 -4 0 0 0 Z " fill="#EEEEEE" transform="translate(32,349)"/>
<path d="M0 0 C2.95857409 -0.05379226 5.91617721 -0.09357093 8.875 -0.125 C9.71675781 -0.14175781 10.55851562 -0.15851562 11.42578125 -0.17578125 C12.23144531 -0.18222656 13.03710938 -0.18867187 13.8671875 -0.1953125 C14.61081543 -0.20578613 15.35444336 -0.21625977 16.12060547 -0.22705078 C18 -0 18 -0 20 2 C18.82953125 2.53625 17.6590625 3.0725 16.453125 3.625 C11.98852951 5.85926453 8.4560562 8.68750729 4.75 12 C4.151875 12.52078125 3.55375 13.0415625 2.9375 13.578125 C0.4311429 15.77395998 -1.97884535 17.9781258 -4.296875 20.375 C-6 22 -6 22 -8 22 C-8 22.66 -8 23.32 -8 24 C-9.32 24.33 -10.64 24.66 -12 25 C-12 21 -12 21 -9.9375 18.875 C-9.48890625 18.45863281 -9.0403125 18.04226562 -8.578125 17.61328125 C-6.571526 15.56198079 -4.89081708 13.37167173 -3.1875 11.0625 C-2.58292969 10.24910156 -1.97835938 9.43570312 -1.35546875 8.59765625 C0.24964245 5.52157859 0.25405369 3.42225259 0 0 Z " fill="#ECECEC" transform="translate(466,0)"/>
<path d="M0 0 C0.99 0 1.98 0 3 0 C3.042721 1.66611905 3.04063832 3.33382885 3 5 C2.67 5.33 2.34 5.66 2 6 C2.020625 6.928125 2.04125 7.85625 2.0625 8.8125 C2 12 2 12 0 16 C-8.58 16 -17.16 16 -26 16 C-25.67 15.34 -25.34 14.68 -25 14 C-22.7421875 13.5078125 -22.7421875 13.5078125 -19.875 13.125 C-11.17046407 11.6405055 -6.98864161 8.53685888 -1.578125 1.609375 C-1.05734375 1.07828125 -0.5365625 0.5471875 0 0 Z " fill="#EBEBEB" transform="translate(111,484)"/>
<path d="M0 0 C6.6 0 13.2 0 20 0 C19.34 1.65 18.68 3.3 18 5 C17.46312815 7.0356391 17.01064209 9.07616043 16.5625 11.1328125 C16 13 16 13 14 16 C13.01 15.67 12.02 15.34 11 15 C10.95101562 14.30132812 10.90203125 13.60265625 10.8515625 12.8828125 C10.77679688 11.97273437 10.70203125 11.06265625 10.625 10.125 C10.55539063 9.22007813 10.48578125 8.31515625 10.4140625 7.3828125 C10.20431868 4.82058097 10.20431868 4.82058097 8 3 C6.03309626 2.32707499 6.03309626 2.32707499 3.875 1.875 C2.59625 1.58625 1.3175 1.2975 0 1 C0 0.67 0 0.34 0 0 Z " fill="#E6E6E6" transform="translate(160,0)"/>
<path d="M0 0 C1.32 0 2.64 0 4 0 C4.03738281 0.58007812 4.07476562 1.16015625 4.11328125 1.7578125 C4.21189453 2.92957031 4.21189453 2.92957031 4.3125 4.125 C4.39951172 5.27355469 4.39951172 5.27355469 4.48828125 6.4453125 C5.02538929 9.7078629 5.02538929 9.7078629 8 15 C2.72 15 -2.56 15 -8 15 C-7.05125 14.01 -6.1025 13.02 -5.125 12 C-1.79126585 8.15519811 -0.87140004 4.96698024 0 0 Z " fill="#EDEDED" transform="translate(319,485)"/>
<path d="M0 0 C6.6 0 13.2 0 20 0 C20.66 3.3 21.32 6.6 22 10 C18 9 18 9 15.640625 7.56640625 C11.82719079 5.30429513 7.77025059 4.2473078 3.546875 2.96484375 C1 2 1 2 0 0 Z " fill="#E9E9E9" transform="translate(92,0)"/>
<path d="M0 0 C1.32 0 2.64 0 4 0 C4.3403125 1.36125 4.3403125 1.36125 4.6875 2.75 C5.94346227 6.62461281 5.94346227 6.62461281 11 10 C3.74 10 -3.52 10 -11 10 C-9 8 -9 8 -6.625 7.25 C-3.70349709 6.13612985 -3.70349709 6.13612985 -1.9375 2.875 C-1.298125 1.92625 -0.65875 0.9775 0 0 Z " fill="#EFEFEF" transform="translate(158,490)"/>
<path d="M0 0 C0 3 0 3 -2.47851562 5.8190918 C-3.61342476 6.9535252 -4.75660841 8.07971791 -5.90625 9.19921875 C-6.50554321 9.79426712 -7.10483643 10.38931549 -7.72229004 11.00239563 C-9.64128092 12.90457052 -11.57043112 14.79606205 -13.5 16.6875 C-14.80146301 17.97392 -16.10225318 19.2610211 -17.40234375 20.54882812 C-20.59380369 23.70718002 -23.79441498 26.85598797 -27 30 C-27.66 29.67 -28.32 29.34 -29 29 C-26.73821825 26.51244165 -24.4641087 24.03648956 -22.1875 21.5625 C-21.54490234 20.85544922 -20.90230469 20.14839844 -20.24023438 19.41992188 C-19.61826172 18.74638672 -18.99628906 18.07285156 -18.35546875 17.37890625 C-17.49924927 16.44413452 -17.49924927 16.44413452 -16.62573242 15.49047852 C-15 14 -15 14 -12 13 C-11.31513275 11.67592331 -10.65129797 10.34090759 -10 9 C-8 6.75 -8 6.75 -6 5 C-5.34 5 -4.68 5 -4 5 C-4 4.34 -4 3.68 -4 3 C-2 1.375 -2 1.375 0 0 Z " fill="#2F2F2F" transform="translate(40,429)"/>
<path d="M0 0 C0 0.99 0 1.98 0 3 C-1.64453125 4.640625 -1.64453125 4.640625 -3.8125 6.25 C-4.52019531 6.79140625 -5.22789063 7.3328125 -5.95703125 7.890625 C-6.96830078 8.43976563 -6.96830078 8.43976563 -8 9 C-8.99 8.67 -9.98 8.34 -11 8 C-11 7.34 -11 6.68 -11 6 C-11.66 5.67 -12.32 5.34 -13 5 C-11.58957044 4.15615325 -10.17135868 3.32530504 -8.75 2.5 C-7.56664062 1.80390625 -7.56664062 1.80390625 -6.359375 1.09375 C-4 0 -4 0 0 0 Z " fill="#DEDEDE" transform="translate(32,349)"/>
<path d="M0 0 C1.32 0.33 2.64 0.66 4 1 C3.67 12.88 3.34 24.76 3 37 C2.67 37 2.34 37 2 37 C2 26.77 2 16.54 2 6 C1.34 6 0.68 6 0 6 C0 4.02 0 2.04 0 0 Z " fill="#4A4A4A" transform="translate(0,48)"/>
<path d="M0 0 C0.94875 0.04125 1.8975 0.0825 2.875 0.125 C2.875 0.785 2.875 1.445 2.875 2.125 C2.318125 2.228125 1.76125 2.33125 1.1875 2.4375 C-4.60127639 4.15848758 -8.35354558 8.09952637 -12.4375 12.3125 C-12.98728516 12.87130859 -13.53707031 13.43011719 -14.10351562 14.00585938 C-15.44863696 15.37437412 -16.78746643 16.74906833 -18.125 18.125 C-18.785 17.795 -19.445 17.465 -20.125 17.125 C-16.01024836 12.17443944 -11.74423992 7.72671545 -6.82421875 3.5703125 C-2.75631027 0.11025241 -2.75631027 0.11025241 0 0 Z " fill="#2A2A2A" transform="translate(463.125,-0.125)"/>
<path d="M0 0 C0 3 0 3 -1.79296875 5.19140625 C-2.58316406 5.97386719 -3.37335937 6.75632812 -4.1875 7.5625 C-4.96480469 8.34753906 -5.74210937 9.13257813 -6.54296875 9.94140625 C-8.98212714 11.98502544 -10.99742699 13.01336411 -14 14 C-9.72706118 8.76564995 -5.18419194 4.32893185 0 0 Z " fill="#2B2B2B" transform="translate(57,413)"/>
<path d="M0 0 C0 0.99 0 1.98 0 3 C-1.63260714 4.37482707 -3.30225062 5.70647667 -5 7 C-6.9451 9.91765 -7.45276317 11.62537285 -8 15 C-8.33 15 -8.66 15 -9 15 C-9.50464541 9.70122324 -8.36521927 7.09283425 -5 3 C-2.25 1.125 -2.25 1.125 0 0 Z " fill="#4B4B4B" transform="translate(304,0)"/>
<path d="M0 0 C3.3 0 6.6 0 10 0 C9 2 9 2 6.125 3.0625 C5.09375 3.371875 4.0625 3.68125 3 4 C2.01 4.33 1.02 4.66 0 5 C0 3.35 0 1.7 0 0 Z " fill="#ECECEC" transform="translate(0,0)"/>
<path d="M0 0 C0.33 0.99 0.66 1.98 1 3 C-1.97 5.97 -4.94 8.94 -8 12 C-8.66 11.67 -9.32 11.34 -10 11 C-6.7 7.37 -3.4 3.74 0 0 Z " fill="#2C2C2C" transform="translate(413,52)"/>
<path d="M0 0 C0.66 0 1.32 0 2 0 C1.67 0.99 1.34 1.98 1 3 C0.34 3 -0.32 3 -1 3 C-1 6.96 -1 10.92 -1 15 C-1.99 14.67 -2.98 14.34 -4 14 C-3.71831703 12.04020573 -3.42433283 10.08217622 -3.125 8.125 C-2.96257813 7.03445313 -2.80015625 5.94390625 -2.6328125 4.8203125 C-2 2 -2 2 0 0 Z " fill="#4E4E4E" transform="translate(4,370)"/>
<path d="M0 0 C3.10551666 3.10551666 3.81323934 4.89198233 5 9 C4.01 8.67 3.02 8.34 2 8 C1.67 8.66 1.34 9.32 1 10 C0.67 6.7 0.34 3.4 0 0 Z " fill="#585858" transform="translate(204,2)"/>
<path d="M0 0 C0.66 0 1.32 0 2 0 C0.84826645 2.46800047 -0.04783565 4.04783565 -2 6 C-2.6425235 8.06874034 -2.6425235 8.06874034 -3 10 C-3.66 10 -4.32 10 -5 10 C-5.33 10.99 -5.66 11.98 -6 13 C-5.26083824 7.97370003 -3.63107238 3.63107238 0 0 Z " fill="#313131" transform="translate(274,3)"/>
<path d="M0 0 C-0.33 1.32 -0.66 2.64 -1 4 C-1.99 4 -2.98 4 -4 4 C-6.68767578 6.43750025 -6.68767578 6.43750025 -9 9 C-9.66 8.67 -10.32 8.34 -11 8 C-9.73861805 6.65772182 -8.46555441 5.32641323 -7.1875 4 C-6.47980469 3.2575 -5.77210937 2.515 -5.04296875 1.75 C-3 0 -3 0 0 0 Z " fill="#CBCBCB" transform="translate(110,423)"/>
<path d="M0 0 C0.66 0.33 1.32 0.66 2 1 C-0.97 3.97 -3.94 6.94 -7 10 C-7 7 -7 7 -4.625 4.4375 C-3.75875 3.633125 -2.8925 2.82875 -2 2 C-1.34 1.34 -0.68 0.68 0 0 Z " fill="#CFCFCF" transform="translate(317,332)"/>
<path d="M0 0 C0.99 0.99 1.98 1.98 3 3 C2.67 3.99 2.34 4.98 2 6 C-0.875 5.6875 -0.875 5.6875 -4 5 C-4.66 4.01 -5.32 3.02 -6 2 C-3.69 2.66 -1.38 3.32 1 4 C0.67 2.68 0.34 1.36 0 0 Z " fill="#494949" transform="translate(60,130)"/>
<path d="M0 0 C1.9789756 3.63616656 2.5251065 6.88425629 3 11 C2.34 11 1.68 11 1 11 C-0.20272819 8.59454362 -0.10071472 7.05003047 -0.0625 4.375 C-0.05347656 3.55773437 -0.04445313 2.74046875 -0.03515625 1.8984375 C-0.02355469 1.27195312 -0.01195312 0.64546875 0 0 Z " fill="#545355" transform="translate(497,374)"/>
<path d="M0 0 C0 0.66 0 1.32 0 2 C-4.06368679 2.77403558 -7.86425173 3.0984702 -12 3 C-7.86112344 0.24074896 -4.92824278 -0.13689563 0 0 Z " fill="#595959" transform="translate(327,324)"/>
<path d="M0 0 C0.66 0 1.32 0 2 0 C0.44499019 3.81684226 -2.03595495 6.19195732 -5 9 C-5.66 8.67 -6.32 8.34 -7 8 C-5.88200014 6.66079162 -4.75538103 5.32877444 -3.625 4 C-2.68527344 2.88625 -2.68527344 2.88625 -1.7265625 1.75 C-1.15679687 1.1725 -0.58703125 0.595 0 0 Z " fill="#2F2F2F" transform="translate(371,2)"/>
<path d="M0 0 C0.66 0.99 1.32 1.98 2 3 C-0.31 4.98 -2.62 6.96 -5 9 C-5.66 8.67 -6.32 8.34 -7 8 C-4.69 5.36 -2.38 2.72 0 0 Z " fill="#242424" transform="translate(37,463)"/>
<path d="M0 0 C0.66 0 1.32 0 2 0 C0.55746343 3.36591866 -1.33264727 5.51047079 -4 8 C-4.66 7.67 -5.32 7.34 -6 7 C-4.71937515 5.2925002 -3.38232443 3.62626404 -2 2 C-1.34 2 -0.68 2 0 2 C0 1.34 0 0.68 0 0 Z " fill="#343434" transform="translate(13,414)"/>
<path d="M0 0 C0.99 0 1.98 0 3 0 C3 1.98 3 3.96 3 6 C4.32 6.33 5.64 6.66 7 7 C4.625 7.1875 4.625 7.1875 2 7 C0 4 0 4 0 0 Z " fill="#404040" transform="translate(0,406)"/>
<path d="M0 0 C-1.36983503 3.16115776 -1.9890638 3.9927092 -5 6 C-5.99 5.34 -6.98 4.68 -8 4 C-2.25 0 -2.25 0 0 0 Z " fill="#9E9E9E" transform="translate(70,400)"/>
<path d="M0 0 C0.66 0.66 1.32 1.32 2 2 C1.01 3.485 1.01 3.485 0 5 C0 5.66 0 6.32 0 7 C-1.32 7.33 -2.64 7.66 -4 8 C-4 4 -4 4 -2 1.75 C-1.01 0.88375 -1.01 0.88375 0 0 Z " fill="#C3C3C3" transform="translate(458,17)"/>
<path d="M0 0 C0.99 0 1.98 0 3 0 C3 1.65 3 3.3 3 5 C2.34 4.34 1.68 3.68 1 3 C-0.65 4.32 -2.3 5.64 -4 7 C-2.79618552 4.50638429 -1.54571278 2.31856917 0 0 Z " fill="#B4B4B4" transform="translate(158,421)"/>
<path d="M0 0 C3.85645121 -0.22036864 6.49223216 0.39644899 10 2 C10 2.33 10 2.66 10 3 C7.69 2.67 5.38 2.34 3 2 C2.67 2.66 2.34 3.32 2 4 C1.34 2.68 0.68 1.36 0 0 Z " fill="#515151" transform="translate(174,324)"/>
<path d="M0 0 C-0.33 0.99 -0.66 1.98 -1 3 C-3.31 3 -5.62 3 -8 3 C-5.53387212 -0.1151089 -3.89156016 -0.31553191 0 0 Z " fill="#505050" transform="translate(225,0)"/>
<path d="M0 0 C0.99 0 1.98 0 3 0 C3 1.65 3 3.3 3 5 C2.34 4.34 1.68 3.68 1 3 C0.01 3.99 -0.98 4.98 -2 6 C-2.66 5.67 -3.32 5.34 -4 5 C-2.1875 2.5 -2.1875 2.5 0 0 Z " fill="#C2C2C2" transform="translate(111,484)"/>
<path d="M0 0 C4.875 1.75 4.875 1.75 6 4 C5.34 4.66 4.68 5.32 4 6 C2 4.6875 2 4.6875 0 3 C0 2.01 0 1.02 0 0 Z " fill="#444444" transform="translate(0,31)"/>
<path d="M0 0 C-0.33 0.99 -0.66 1.98 -1 3 C-3.97 3 -6.94 3 -10 3 C-10 2.67 -10 2.34 -10 2 C-6.38026598 0.68373308 -3.90432869 0 0 0 Z " fill="#575757" transform="translate(14,0)"/>
<path d="M0 0 C1.76462683 3.08809695 2 4.23312136 2 8 C0.35 7.67 -1.3 7.34 -3 7 C-2.01 6.67 -1.02 6.34 0 6 C0 4.02 0 2.04 0 0 Z " fill="#8F8F8F" transform="translate(389,13)"/>
</svg>
