<?xml version="1.0" standalone="no"?>
<!DOCTYPE svg PUBLIC "-//W3C//DTD SVG 20010904//EN"
 "http://www.w3.org/TR/2001/REC-SVG-20010904/DTD/svg10.dtd">
<svg version="1.0" xmlns="http://www.w3.org/2000/svg"
 width="96.000000pt" height="96.000000pt" viewBox="0 0 96.000000 96.000000"
 preserveAspectRatio="xMidYMid meet">

<g transform="translate(0.000000,96.000000) scale(0.100000,-0.100000)"
fill="#000000" stroke="none">
<path d="M0 949 c0 -6 44 -54 98 -106 l97 -95 -97 82 c-99 83 -136 97 -53 21
58 -53 58 -63 0 -16 l-44 37 1 -44 c0 -42 3 -46 59 -82 74 -48 76 -58 4 -17
-30 17 -57 31 -60 31 -2 0 -4 -63 -4 -139 0 -136 0 -140 22 -144 l22 -4 -22
-2 c-22 -1 -23 -4 -23 -106 l0 -106 33 16 32 16 -25 -20 c-14 -11 -28 -21 -32
-21 -5 0 -8 -20 -8 -45 0 -44 1 -45 22 -35 l23 11 -22 -18 c-12 -10 -21 -29
-21 -45 l1 -28 66 51 66 51 -68 -64 c-48 -45 -67 -70 -67 -88 0 -23 1 -23 38
13 52 51 60 47 12 -5 l-40 -43 33 -3 c25 -3 37 3 57 25 132 150 140 156 57 46
-26 -34 -47 -64 -47 -67 0 -3 19 -6 41 -6 28 0 46 6 55 18 13 16 14 16 8 -3
l-6 -20 14 20 c8 11 29 46 47 78 18 31 35 57 37 57 3 0 0 -9 -6 -21 -7 -11 -9
-23 -6 -26 3 -3 -1 -17 -8 -32 -27 -53 -29 -71 -8 -71 11 0 23 6 25 13 4 9 6
9 6 0 1 -7 10 -13 20 -13 16 0 24 13 37 60 21 74 28 72 16 -4 -8 -50 -7 -56 9
-56 10 0 19 9 22 23 l4 22 2 -22 c2 -34 19 -27 25 9 3 18 9 58 14 88 l9 55 2
-87 1 -88 41 0 41 0 -6 78 -5 77 16 -78 c13 -61 20 -77 34 -77 10 0 20 8 22
17 4 17 5 17 6 1 0 -10 6 -18 11 -18 11 0 6 29 -17 94 -23 67 -8 50 21 -24
l28 -70 44 0 c24 0 44 2 44 5 0 3 -11 22 -23 43 -30 47 -49 82 -44 82 2 0 25
-29 52 -65 28 -37 57 -65 67 -65 24 0 23 10 -7 50 -38 52 -29 51 16 -2 38 -45
44 -48 88 -48 36 1 42 3 29 11 -10 5 -18 16 -18 24 0 7 -3 15 -7 17 -5 2 -33
30 -63 63 -52 56 -51 55 32 -19 l88 -78 0 34 c0 26 -8 40 -37 67 l-38 33 38
-26 37 -27 0 25 c0 18 -12 33 -45 56 -56 38 -59 49 -5 15 22 -14 42 -25 45
-25 3 0 5 18 5 40 0 33 -5 42 -27 54 -16 8 -24 15 -20 16 5 0 17 -4 27 -10 18
-10 19 -3 19 161 l1 172 -32 -7 c-24 -4 -29 -3 -18 4 8 5 23 10 33 10 14 0 17
10 17 65 0 36 -4 65 -9 65 -6 0 -26 -9 -45 -21 -52 -30 -44 -16 9 18 43 27 45
30 45 76 0 42 -11 60 -24 39 -3 -4 -33 -30 -68 -56 -35 -26 -49 -36 -33 -21
117 107 126 117 123 142 -3 23 -5 22 -63 -28 -56 -49 -50 -37 17 35 40 42 25
46 -20 5 -20 -19 -27 -22 -14 -8 25 29 28 39 9 39 -7 0 -31 -24 -55 -53 -23
-29 -56 -66 -74 -83 -25 -23 -19 -11 25 54 l57 82 -32 0 c-36 -1 -72 -22 -60
-35 4 -5 1 -5 -5 -1 -7 4 -13 3 -13 -1 0 -5 -7 -18 -15 -29 -10 -11 -8 -2 5
24 19 40 19 42 2 42 -13 0 -28 -21 -52 -70 -18 -38 -35 -68 -37 -67 -1 2 8 32
22 67 14 35 25 65 25 67 0 2 -13 3 -28 3 -25 0 -31 -6 -45 -47 l-16 -48 6 48
c4 38 2 47 -10 47 -9 0 -18 -8 -20 -17 -4 -17 -5 -17 -6 0 -1 13 -8 17 -24 15
-20 -3 -23 -12 -33 -83 l-11 -80 -2 83 -1 82 -40 0 c-39 0 -40 -1 -35 -27 l6
-28 -16 30 -15 30 5 -45 c3 -25 8 -61 10 -80 3 -19 -5 0 -16 43 -21 74 -42 99
-52 60 -4 -17 -5 -17 -6 0 -1 13 -10 17 -35 17 l-35 0 30 -65 c16 -35 29 -67
29 -70 0 -14 -30 25 -60 78 -17 31 -36 57 -42 57 -5 0 -6 -6 -2 -12 6 -10 3
-9 -8 0 -9 7 -29 12 -43 10 l-26 -3 41 -59 c95 -135 94 -145 0 -21 -57 75 -80
98 -80 79 0 -3 12 -22 26 -42 26 -36 25 -36 -14 6 -32 34 -46 42 -76 42 -20 0
-36 -5 -36 -11z m406 -284 c9 -21 132 -21 148 0 17 24 108 -6 135 -44 41 -57
63 -133 65 -216 l1 -80 -50 -26 c-77 -41 -92 -44 -106 -18 -10 19 -8 25 12 40
29 22 27 23 -35 4 -63 -19 -142 -19 -196 0 -55 19 -60 19 -31 -4 20 -15 22
-21 12 -40 -14 -26 -31 -23 -106 19 l-50 28 2 82 c1 75 5 91 40 159 36 72 41
77 88 93 62 21 64 21 71 3z"/>
<path d="M344 481 c-2 -2 -4 -17 -4 -32 0 -38 39 -65 69 -49 21 11 37 52 27
68 -6 10 -84 21 -92 13z"/>
<path d="M570 482 c-44 -4 -54 -14 -46 -46 15 -61 96 -49 96 14 0 34 -4 37
-50 32z"/>
</g>
</svg>
